<svg width="18" height="18" viewBox="0 0 18 18" fill="none" xmlns="http://www.w3.org/2000/svg">
<path d="M7.9983 5.74853V9.42853C7.9983 9.77853 8.1883 10.1085 8.4883 10.2885L11.6083 12.1385C11.9683 12.3485 12.4283 12.2285 12.6383 11.8785C12.8483 11.5185 12.7383 11.0585 12.3783 10.8485L9.5083 9.13853V5.73853C9.4983 5.33853 9.1583 4.99853 8.7483 4.99853C8.3383 4.99853 7.9983 5.33853 7.9983 5.74853ZM17.9983 6.49853V1.20853C17.9983 0.758534 17.4583 0.538534 17.1483 0.858534L15.3683 2.63853C13.5583 0.828534 10.9783 -0.211466 8.1583 0.0385337C3.9683 0.418534 0.518298 3.78853 0.0582982 7.97853C-0.541702 13.3985 3.6883 17.9985 8.9983 17.9985C13.5883 17.9985 17.3783 14.5585 17.9283 10.1185C17.9983 9.51853 17.5283 8.99853 16.9283 8.99853C16.4283 8.99853 16.0083 9.36853 15.9483 9.85853C15.5183 13.3485 12.5083 16.0485 8.8983 15.9985C5.1883 15.9485 2.0583 12.8185 1.9983 9.09853C1.9383 5.19853 5.1083 1.99853 8.9983 1.99853C10.9283 1.99853 12.6783 2.78853 13.9483 4.04853L11.8583 6.13853C11.5383 6.45853 11.7583 6.99853 12.2083 6.99853H17.4983C17.7783 6.99853 17.9983 6.77853 17.9983 6.49853Z" fill="#2D2E31"/>
</svg>
