<svg width="22" height="22" viewBox="0 0 22 22" fill="none" xmlns="http://www.w3.org/2000/svg">
<path d="M1.80762 19.5868H11.8076C12.3576 19.5868 12.8076 20.0368 12.8076 20.5868C12.8076 21.1368 12.3576 21.5868 11.8076 21.5868H1.80762C1.25762 21.5868 0.807617 21.1368 0.807617 20.5868C0.807617 20.0368 1.25762 19.5868 1.80762 19.5868ZM5.04762 6.65684L7.87762 3.82684L20.6076 16.5568C21.3876 17.3368 21.3876 18.6068 20.6076 19.3868C19.8276 20.1668 18.5576 20.1668 17.7776 19.3868L5.04762 6.65684ZM13.5376 0.996842L16.3676 3.82684C17.1476 4.60684 17.1476 5.87684 16.3676 6.65684L14.9476 8.07684L9.29762 2.41684L10.7076 1.00684C11.4876 0.216842 12.7576 0.216842 13.5376 0.996842ZM3.63762 8.06684L9.29762 13.7268L7.88762 15.1368C7.10762 15.9168 5.83762 15.9168 5.05762 15.1368L2.22762 12.3068C1.44762 11.5268 1.44762 10.2568 2.22762 9.47684L3.63762 8.06684Z" fill="#2D2E31"/>
</svg>
